<mxfile host="app.diagrams.net" modified="2023-07-23T17:41:23.187Z" agent="Mozilla/5.0 (X11; Linux x86_64) AppleWebKit/537.36 (KHTML, like Gecko) Chrome/114.0.0.0 Safari/537.36" etag="N-DRh4f0OVvnVdd8Vc4d" version="21.6.5" type="github">
  <diagram id="C5RBs43oDa-KdzZeNtuy" name="Page-1">
    <mxGraphModel dx="1032" dy="531" grid="1" gridSize="10" guides="1" tooltips="1" connect="1" arrows="1" fold="1" page="1" pageScale="1" pageWidth="827" pageHeight="1169" math="0" shadow="0">
      <root>
        <mxCell id="WIyWlLk6GJQsqaUBKTNV-0" />
        <mxCell id="WIyWlLk6GJQsqaUBKTNV-1" parent="WIyWlLk6GJQsqaUBKTNV-0" />
        <mxCell id="CkJoT22tMTEsZY5iSaQc-8" style="edgeStyle=orthogonalEdgeStyle;rounded=0;orthogonalLoop=1;jettySize=auto;html=1;entryX=0;entryY=0.5;entryDx=0;entryDy=0;" edge="1" parent="WIyWlLk6GJQsqaUBKTNV-1" source="CkJoT22tMTEsZY5iSaQc-3" target="CkJoT22tMTEsZY5iSaQc-7">
          <mxGeometry relative="1" as="geometry" />
        </mxCell>
        <mxCell id="CkJoT22tMTEsZY5iSaQc-3" value="Roll Dice btn" style="rounded=1;whiteSpace=wrap;html=1;fillColor=#fff2cc;strokeColor=#d6b656;" vertex="1" parent="WIyWlLk6GJQsqaUBKTNV-1">
          <mxGeometry y="80" width="120" height="60" as="geometry" />
        </mxCell>
        <mxCell id="CkJoT22tMTEsZY5iSaQc-29" style="edgeStyle=orthogonalEdgeStyle;rounded=0;orthogonalLoop=1;jettySize=auto;html=1;entryX=0;entryY=0.5;entryDx=0;entryDy=0;" edge="1" parent="WIyWlLk6GJQsqaUBKTNV-1" source="CkJoT22tMTEsZY5iSaQc-4" target="CkJoT22tMTEsZY5iSaQc-28">
          <mxGeometry relative="1" as="geometry" />
        </mxCell>
        <mxCell id="CkJoT22tMTEsZY5iSaQc-4" value="Hold btn" style="rounded=1;whiteSpace=wrap;html=1;fillColor=#fff2cc;strokeColor=#d6b656;" vertex="1" parent="WIyWlLk6GJQsqaUBKTNV-1">
          <mxGeometry y="240" width="120" height="60" as="geometry" />
        </mxCell>
        <mxCell id="CkJoT22tMTEsZY5iSaQc-44" style="edgeStyle=orthogonalEdgeStyle;rounded=0;orthogonalLoop=1;jettySize=auto;html=1;entryX=0;entryY=0.5;entryDx=0;entryDy=0;" edge="1" parent="WIyWlLk6GJQsqaUBKTNV-1" source="CkJoT22tMTEsZY5iSaQc-5" target="CkJoT22tMTEsZY5iSaQc-43">
          <mxGeometry relative="1" as="geometry" />
        </mxCell>
        <mxCell id="CkJoT22tMTEsZY5iSaQc-5" value="New Game btn&lt;br&gt;" style="rounded=1;whiteSpace=wrap;html=1;fillColor=#fff2cc;strokeColor=#d6b656;" vertex="1" parent="WIyWlLk6GJQsqaUBKTNV-1">
          <mxGeometry y="440" width="120" height="60" as="geometry" />
        </mxCell>
        <mxCell id="CkJoT22tMTEsZY5iSaQc-10" style="edgeStyle=orthogonalEdgeStyle;rounded=0;orthogonalLoop=1;jettySize=auto;html=1;entryX=0;entryY=0.5;entryDx=0;entryDy=0;" edge="1" parent="WIyWlLk6GJQsqaUBKTNV-1" source="CkJoT22tMTEsZY5iSaQc-7" target="CkJoT22tMTEsZY5iSaQc-9">
          <mxGeometry relative="1" as="geometry" />
        </mxCell>
        <mxCell id="CkJoT22tMTEsZY5iSaQc-7" value="Generate random dice roll" style="rounded=0;whiteSpace=wrap;html=1;fillColor=#d5e8d4;strokeColor=#82b366;" vertex="1" parent="WIyWlLk6GJQsqaUBKTNV-1">
          <mxGeometry x="160" y="80" width="120" height="60" as="geometry" />
        </mxCell>
        <mxCell id="CkJoT22tMTEsZY5iSaQc-15" value="" style="edgeStyle=orthogonalEdgeStyle;rounded=0;orthogonalLoop=1;jettySize=auto;html=1;" edge="1" parent="WIyWlLk6GJQsqaUBKTNV-1" source="CkJoT22tMTEsZY5iSaQc-9" target="CkJoT22tMTEsZY5iSaQc-14">
          <mxGeometry relative="1" as="geometry" />
        </mxCell>
        <mxCell id="CkJoT22tMTEsZY5iSaQc-9" value="Display dice roll" style="rounded=0;whiteSpace=wrap;html=1;fillColor=#d5e8d4;strokeColor=#82b366;" vertex="1" parent="WIyWlLk6GJQsqaUBKTNV-1">
          <mxGeometry x="320" y="80" width="120" height="60" as="geometry" />
        </mxCell>
        <mxCell id="CkJoT22tMTEsZY5iSaQc-18" value="" style="edgeStyle=orthogonalEdgeStyle;rounded=0;orthogonalLoop=1;jettySize=auto;html=1;" edge="1" parent="WIyWlLk6GJQsqaUBKTNV-1" source="CkJoT22tMTEsZY5iSaQc-14" target="CkJoT22tMTEsZY5iSaQc-17">
          <mxGeometry relative="1" as="geometry" />
        </mxCell>
        <mxCell id="CkJoT22tMTEsZY5iSaQc-49" style="edgeStyle=orthogonalEdgeStyle;rounded=0;orthogonalLoop=1;jettySize=auto;html=1;" edge="1" parent="WIyWlLk6GJQsqaUBKTNV-1" source="CkJoT22tMTEsZY5iSaQc-14" target="CkJoT22tMTEsZY5iSaQc-32">
          <mxGeometry relative="1" as="geometry" />
        </mxCell>
        <mxCell id="CkJoT22tMTEsZY5iSaQc-14" value="Is it a 1?" style="rhombus;whiteSpace=wrap;html=1;rounded=0;fillColor=#1ba1e2;strokeColor=#006EAF;fontColor=#ffffff;" vertex="1" parent="WIyWlLk6GJQsqaUBKTNV-1">
          <mxGeometry x="484" y="70" width="120" height="80" as="geometry" />
        </mxCell>
        <mxCell id="CkJoT22tMTEsZY5iSaQc-22" value="" style="edgeStyle=orthogonalEdgeStyle;rounded=0;orthogonalLoop=1;jettySize=auto;html=1;" edge="1" parent="WIyWlLk6GJQsqaUBKTNV-1" source="CkJoT22tMTEsZY5iSaQc-17" target="CkJoT22tMTEsZY5iSaQc-21">
          <mxGeometry relative="1" as="geometry" />
        </mxCell>
        <mxCell id="CkJoT22tMTEsZY5iSaQc-17" value="Add dice roll to current score" style="whiteSpace=wrap;html=1;rounded=0;fillColor=#d5e8d4;strokeColor=#82b366;" vertex="1" parent="WIyWlLk6GJQsqaUBKTNV-1">
          <mxGeometry x="640" y="80" width="120" height="60" as="geometry" />
        </mxCell>
        <mxCell id="CkJoT22tMTEsZY5iSaQc-20" value="NO" style="text;html=1;strokeColor=none;fillColor=none;align=center;verticalAlign=middle;whiteSpace=wrap;rounded=0;" vertex="1" parent="WIyWlLk6GJQsqaUBKTNV-1">
          <mxGeometry x="591" y="81" width="60" height="30" as="geometry" />
        </mxCell>
        <mxCell id="CkJoT22tMTEsZY5iSaQc-21" value="Display new score" style="whiteSpace=wrap;html=1;rounded=0;fillColor=#d5e8d4;strokeColor=#82b366;" vertex="1" parent="WIyWlLk6GJQsqaUBKTNV-1">
          <mxGeometry x="800" y="80" width="120" height="60" as="geometry" />
        </mxCell>
        <mxCell id="CkJoT22tMTEsZY5iSaQc-31" value="" style="edgeStyle=orthogonalEdgeStyle;rounded=0;orthogonalLoop=1;jettySize=auto;html=1;" edge="1" parent="WIyWlLk6GJQsqaUBKTNV-1" source="CkJoT22tMTEsZY5iSaQc-28" target="CkJoT22tMTEsZY5iSaQc-30">
          <mxGeometry relative="1" as="geometry" />
        </mxCell>
        <mxCell id="CkJoT22tMTEsZY5iSaQc-28" value="Add current score to total score" style="rounded=0;whiteSpace=wrap;html=1;fillColor=#d5e8d4;strokeColor=#82b366;" vertex="1" parent="WIyWlLk6GJQsqaUBKTNV-1">
          <mxGeometry x="160" y="240" width="120" height="60" as="geometry" />
        </mxCell>
        <mxCell id="CkJoT22tMTEsZY5iSaQc-33" value="" style="edgeStyle=orthogonalEdgeStyle;rounded=0;orthogonalLoop=1;jettySize=auto;html=1;" edge="1" parent="WIyWlLk6GJQsqaUBKTNV-1" source="CkJoT22tMTEsZY5iSaQc-30" target="CkJoT22tMTEsZY5iSaQc-32">
          <mxGeometry relative="1" as="geometry" />
        </mxCell>
        <mxCell id="CkJoT22tMTEsZY5iSaQc-40" value="" style="edgeStyle=orthogonalEdgeStyle;rounded=0;orthogonalLoop=1;jettySize=auto;html=1;" edge="1" parent="WIyWlLk6GJQsqaUBKTNV-1" source="CkJoT22tMTEsZY5iSaQc-30" target="CkJoT22tMTEsZY5iSaQc-39">
          <mxGeometry relative="1" as="geometry" />
        </mxCell>
        <mxCell id="CkJoT22tMTEsZY5iSaQc-30" value="Score &amp;gt;= 100?" style="rhombus;whiteSpace=wrap;html=1;fillColor=#1ba1e2;strokeColor=#006EAF;rounded=0;fontColor=#ffffff;" vertex="1" parent="WIyWlLk6GJQsqaUBKTNV-1">
          <mxGeometry x="300" y="230" width="140" height="80" as="geometry" />
        </mxCell>
        <mxCell id="CkJoT22tMTEsZY5iSaQc-32" value="Switch Player" style="whiteSpace=wrap;html=1;fillColor=#d5e8d4;strokeColor=#82b366;rounded=0;" vertex="1" parent="WIyWlLk6GJQsqaUBKTNV-1">
          <mxGeometry x="496" y="230" width="120" height="60" as="geometry" />
        </mxCell>
        <mxCell id="CkJoT22tMTEsZY5iSaQc-34" value="NO" style="text;html=1;strokeColor=none;fillColor=none;align=center;verticalAlign=middle;whiteSpace=wrap;rounded=0;" vertex="1" parent="WIyWlLk6GJQsqaUBKTNV-1">
          <mxGeometry x="436" y="240" width="60" height="30" as="geometry" />
        </mxCell>
        <mxCell id="CkJoT22tMTEsZY5iSaQc-36" value="YES" style="text;html=1;strokeColor=none;fillColor=none;align=center;verticalAlign=middle;whiteSpace=wrap;rounded=0;" vertex="1" parent="WIyWlLk6GJQsqaUBKTNV-1">
          <mxGeometry x="490" y="180" width="60" height="30" as="geometry" />
        </mxCell>
        <mxCell id="CkJoT22tMTEsZY5iSaQc-39" value="Current player win" style="whiteSpace=wrap;html=1;fillColor=#e51400;strokeColor=#B20000;rounded=0;fontColor=#ffffff;" vertex="1" parent="WIyWlLk6GJQsqaUBKTNV-1">
          <mxGeometry x="310" y="360" width="120" height="60" as="geometry" />
        </mxCell>
        <mxCell id="CkJoT22tMTEsZY5iSaQc-41" value="YES" style="text;html=1;strokeColor=none;fillColor=none;align=center;verticalAlign=middle;whiteSpace=wrap;rounded=0;" vertex="1" parent="WIyWlLk6GJQsqaUBKTNV-1">
          <mxGeometry x="310" y="317" width="60" height="30" as="geometry" />
        </mxCell>
        <mxCell id="CkJoT22tMTEsZY5iSaQc-47" value="" style="edgeStyle=orthogonalEdgeStyle;rounded=0;orthogonalLoop=1;jettySize=auto;html=1;" edge="1" parent="WIyWlLk6GJQsqaUBKTNV-1" source="CkJoT22tMTEsZY5iSaQc-43" target="CkJoT22tMTEsZY5iSaQc-46">
          <mxGeometry relative="1" as="geometry" />
        </mxCell>
        <mxCell id="CkJoT22tMTEsZY5iSaQc-43" value="Set the score to 0" style="rounded=0;whiteSpace=wrap;html=1;fillColor=#d5e8d4;strokeColor=#82b366;" vertex="1" parent="WIyWlLk6GJQsqaUBKTNV-1">
          <mxGeometry x="160" y="440" width="120" height="60" as="geometry" />
        </mxCell>
        <mxCell id="CkJoT22tMTEsZY5iSaQc-46" value="Set player 1 as starting player" style="rounded=0;whiteSpace=wrap;html=1;fillColor=#d5e8d4;strokeColor=#82b366;" vertex="1" parent="WIyWlLk6GJQsqaUBKTNV-1">
          <mxGeometry x="320" y="440" width="120" height="60" as="geometry" />
        </mxCell>
      </root>
    </mxGraphModel>
  </diagram>
</mxfile>
